<mxfile host="65bd71144e">
    <diagram id="fOQ8CYuaFxciZi-NXLuo" name="Page-1">
        <mxGraphModel dx="803" dy="706" grid="1" gridSize="10" guides="1" tooltips="1" connect="1" arrows="1" fold="1" page="1" pageScale="1" pageWidth="850" pageHeight="1100" math="1" shadow="0">
            <root>
                <mxCell id="0"/>
                <mxCell id="1" parent="0"/>
                <mxCell id="2" value="\(a_1 = 2\)" style="rounded=1;whiteSpace=wrap;html=1;arcSize=40;fontColor=#000000;fillColor=#ffffc0;strokeColor=#ff0000;fontFamily=OpenSans;" parent="1" vertex="1">
                    <mxGeometry x="120" y="280" width="120" height="40" as="geometry"/>
                </mxCell>
                <mxCell id="3" value="" style="edgeStyle=orthogonalEdgeStyle;html=1;verticalAlign=bottom;endArrow=open;endSize=8;strokeColor=#ff0000;fontFamily=OpenSans;" parent="1" source="2" edge="1">
                    <mxGeometry relative="1" as="geometry">
                        <mxPoint x="180" y="360" as="targetPoint"/>
                    </mxGeometry>
                </mxCell>
                <mxCell id="10" value="\(z_i == 0\)" style="rhombus;whiteSpace=wrap;html=1;fontColor=#000000;fillColor=#ffffc0;strokeColor=#ff0000;fontFamily=OpenSans;" parent="1" vertex="1">
                    <mxGeometry x="290" y="440" width="80" height="40" as="geometry"/>
                </mxCell>
                <mxCell id="11" value="no" style="edgeStyle=orthogonalEdgeStyle;html=1;align=left;verticalAlign=bottom;endArrow=open;endSize=8;strokeColor=#ff0000;fontFamily=OpenSans;" parent="1" source="10" edge="1">
                    <mxGeometry x="-1" relative="1" as="geometry">
                        <mxPoint x="400" y="520" as="targetPoint"/>
                    </mxGeometry>
                </mxCell>
                <mxCell id="12" value="yes" style="edgeStyle=orthogonalEdgeStyle;html=1;align=left;verticalAlign=top;endArrow=open;endSize=8;strokeColor=#ff0000;fontFamily=OpenSans;" parent="1" source="10" edge="1">
                    <mxGeometry x="-1" relative="1" as="geometry">
                        <mxPoint x="330" y="520" as="targetPoint"/>
                    </mxGeometry>
                </mxCell>
                <mxCell id="13" value="" style="edgeStyle=orthogonalEdgeStyle;html=1;verticalAlign=bottom;endArrow=open;endSize=8;strokeColor=#ff0000;entryX=0.5;entryY=0;entryDx=0;entryDy=0;fontFamily=OpenSans;" parent="1" target="2" edge="1">
                    <mxGeometry relative="1" as="geometry">
                        <mxPoint x="190" y="390" as="targetPoint"/>
                        <mxPoint x="180" y="240" as="sourcePoint"/>
                    </mxGeometry>
                </mxCell>
                <mxCell id="14" value="$$a_i = a_{i-1} \cdot a_{i-1}$$" style="rounded=1;whiteSpace=wrap;html=1;arcSize=40;fontColor=#000000;fillColor=#ffffc0;strokeColor=#ff0000;fontFamily=OpenSans;" parent="1" vertex="1">
                    <mxGeometry x="100" y="440" width="160" height="40" as="geometry"/>
                </mxCell>
                <mxCell id="15" value="" style="edgeStyle=orthogonalEdgeStyle;html=1;verticalAlign=bottom;endArrow=open;endSize=8;strokeColor=#ff0000;fontFamily=OpenSans;" parent="1" source="14" edge="1">
                    <mxGeometry relative="1" as="geometry">
                        <mxPoint x="180" y="520" as="targetPoint"/>
                    </mxGeometry>
                </mxCell>
                <mxCell id="16" value="" style="edgeStyle=orthogonalEdgeStyle;html=1;verticalAlign=bottom;endArrow=open;endSize=8;strokeColor=#ff0000;entryX=0.5;entryY=0;entryDx=0;entryDy=0;fontFamily=OpenSans;" parent="1" target="14" edge="1">
                    <mxGeometry relative="1" as="geometry">
                        <mxPoint x="190" y="540" as="targetPoint"/>
                        <mxPoint x="180" y="400" as="sourcePoint"/>
                    </mxGeometry>
                </mxCell>
                <mxCell id="17" value="\(i=5\)" style="rounded=1;whiteSpace=wrap;html=1;arcSize=40;fontColor=#000000;fillColor=#ffffc0;strokeColor=#ff0000;fontFamily=OpenSans;" parent="1" vertex="1">
                    <mxGeometry x="270" y="280" width="120" height="40" as="geometry"/>
                </mxCell>
                <mxCell id="18" value="" style="edgeStyle=orthogonalEdgeStyle;html=1;verticalAlign=bottom;endArrow=open;endSize=8;strokeColor=#ff0000;entryX=0.5;entryY=0;entryDx=0;entryDy=0;fontFamily=OpenSans;" parent="1" source="17" target="10" edge="1">
                    <mxGeometry relative="1" as="geometry">
                        <mxPoint x="350" y="330" as="targetPoint"/>
                    </mxGeometry>
                </mxCell>
                <mxCell id="19" value="" style="edgeStyle=orthogonalEdgeStyle;html=1;verticalAlign=bottom;endArrow=open;endSize=8;strokeColor=#ff0000;entryX=0.5;entryY=0;entryDx=0;entryDy=0;fontFamily=OpenSans;" parent="1" target="17" edge="1">
                    <mxGeometry relative="1" as="geometry">
                        <mxPoint x="360" y="340" as="targetPoint"/>
                        <mxPoint x="330" y="240" as="sourcePoint"/>
                    </mxGeometry>
                </mxCell>
                <mxCell id="20" value="..." style="text;html=1;align=center;verticalAlign=middle;whiteSpace=wrap;rounded=0;fontStyle=1;fontSize=20;fontFamily=OpenSans;" parent="1" vertex="1">
                    <mxGeometry x="150" y="360" width="60" height="40" as="geometry"/>
                </mxCell>
                <mxCell id="21" value="\(a[1] = 2\)" style="rounded=1;whiteSpace=wrap;html=1;arcSize=40;fontColor=#000000;fillColor=#ffffc0;strokeColor=#ff0000;fontFamily=OpenSans;" parent="1" vertex="1">
                    <mxGeometry x="460" y="280" width="120" height="40" as="geometry"/>
                </mxCell>
                <mxCell id="22" value="" style="edgeStyle=orthogonalEdgeStyle;html=1;verticalAlign=bottom;endArrow=open;endSize=8;strokeColor=#ff0000;fontFamily=OpenSans;" parent="1" source="21" edge="1">
                    <mxGeometry relative="1" as="geometry">
                        <mxPoint x="520" y="360" as="targetPoint"/>
                    </mxGeometry>
                </mxCell>
                <mxCell id="23" value="\(z[i] == 0\)" style="rhombus;whiteSpace=wrap;html=1;fontColor=#000000;fillColor=#ffffc0;strokeColor=#ff0000;fontFamily=OpenSans;" parent="1" vertex="1">
                    <mxGeometry x="630" y="440" width="80" height="40" as="geometry"/>
                </mxCell>
                <mxCell id="24" value="no" style="edgeStyle=orthogonalEdgeStyle;html=1;align=left;verticalAlign=bottom;endArrow=open;endSize=8;strokeColor=#ff0000;fontFamily=OpenSans;" parent="1" source="23" edge="1">
                    <mxGeometry x="-1" relative="1" as="geometry">
                        <mxPoint x="740" y="520" as="targetPoint"/>
                    </mxGeometry>
                </mxCell>
                <mxCell id="25" value="yes" style="edgeStyle=orthogonalEdgeStyle;html=1;align=left;verticalAlign=top;endArrow=open;endSize=8;strokeColor=#ff0000;fontFamily=OpenSans;" parent="1" source="23" edge="1">
                    <mxGeometry x="-1" relative="1" as="geometry">
                        <mxPoint x="670" y="520" as="targetPoint"/>
                    </mxGeometry>
                </mxCell>
                <mxCell id="26" value="" style="edgeStyle=orthogonalEdgeStyle;html=1;verticalAlign=bottom;endArrow=open;endSize=8;strokeColor=#ff0000;entryX=0.5;entryY=0;entryDx=0;entryDy=0;fontFamily=OpenSans;" parent="1" target="21" edge="1">
                    <mxGeometry relative="1" as="geometry">
                        <mxPoint x="530" y="390" as="targetPoint"/>
                        <mxPoint x="520" y="240" as="sourcePoint"/>
                    </mxGeometry>
                </mxCell>
                <mxCell id="27" value="\(a[i] = a[i-1] \cdot a[i-1]\)" style="rounded=1;whiteSpace=wrap;html=1;arcSize=40;fontColor=#000000;fillColor=#ffffc0;strokeColor=#ff0000;fontFamily=OpenSans;" parent="1" vertex="1">
                    <mxGeometry x="440" y="440" width="160" height="40" as="geometry"/>
                </mxCell>
                <mxCell id="28" value="" style="edgeStyle=orthogonalEdgeStyle;html=1;verticalAlign=bottom;endArrow=open;endSize=8;strokeColor=#ff0000;fontFamily=OpenSans;" parent="1" source="27" edge="1">
                    <mxGeometry relative="1" as="geometry">
                        <mxPoint x="520" y="520" as="targetPoint"/>
                    </mxGeometry>
                </mxCell>
                <mxCell id="29" value="" style="edgeStyle=orthogonalEdgeStyle;html=1;verticalAlign=bottom;endArrow=open;endSize=8;strokeColor=#ff0000;entryX=0.5;entryY=0;entryDx=0;entryDy=0;fontFamily=OpenSans;" parent="1" target="27" edge="1">
                    <mxGeometry relative="1" as="geometry">
                        <mxPoint x="530" y="540" as="targetPoint"/>
                        <mxPoint x="520" y="400" as="sourcePoint"/>
                    </mxGeometry>
                </mxCell>
                <mxCell id="30" value="\(i=5\)" style="rounded=1;whiteSpace=wrap;html=1;arcSize=40;fontColor=#000000;fillColor=#ffffc0;strokeColor=#ff0000;fontFamily=OpenSans;" parent="1" vertex="1">
                    <mxGeometry x="610" y="280" width="120" height="40" as="geometry"/>
                </mxCell>
                <mxCell id="31" value="" style="edgeStyle=orthogonalEdgeStyle;html=1;verticalAlign=bottom;endArrow=open;endSize=8;strokeColor=#ff0000;entryX=0.5;entryY=0;entryDx=0;entryDy=0;fontFamily=OpenSans;" parent="1" source="30" target="23" edge="1">
                    <mxGeometry relative="1" as="geometry">
                        <mxPoint x="690" y="330" as="targetPoint"/>
                    </mxGeometry>
                </mxCell>
                <mxCell id="32" value="" style="edgeStyle=orthogonalEdgeStyle;html=1;verticalAlign=bottom;endArrow=open;endSize=8;strokeColor=#ff0000;entryX=0.5;entryY=0;entryDx=0;entryDy=0;fontFamily=OpenSans;" parent="1" target="30" edge="1">
                    <mxGeometry relative="1" as="geometry">
                        <mxPoint x="700" y="340" as="targetPoint"/>
                        <mxPoint x="670" y="240" as="sourcePoint"/>
                    </mxGeometry>
                </mxCell>
                <mxCell id="33" value="..." style="text;html=1;align=center;verticalAlign=middle;whiteSpace=wrap;rounded=0;fontStyle=1;fontSize=20;fontFamily=OpenSans;" parent="1" vertex="1">
                    <mxGeometry x="490" y="360" width="60" height="40" as="geometry"/>
                </mxCell>
                <mxCell id="34" value="" style="endArrow=none;dashed=1;html=1;dashPattern=1 3;strokeWidth=2;fontFamily=OpenSans;" parent="1" edge="1">
                    <mxGeometry width="50" height="50" relative="1" as="geometry">
                        <mxPoint x="420" y="520" as="sourcePoint"/>
                        <mxPoint x="420" y="240" as="targetPoint"/>
                    </mxGeometry>
                </mxCell>
            </root>
        </mxGraphModel>
    </diagram>
</mxfile>